<?xml version="1.0" encoding="UTF-8" standalone="no"?>
<!-- Created by diasvg.py -->
<svg width="79.353cm" height="41.419cm" viewBox="-17.475 -5.369 61.878 36.050"
 xmlns="http://www.w3.org/2000/svg"
 xmlns:xlink="http://www.w3.org/1999/xlink">
<rect x="43.000" y="5.200" width="2.940" height="1.800" fill="#FFFFFF" stroke="none" stroke-width="0"/>
<rect x="43.000" y="5.200" width="2.940" height="1.800" fill="none" stroke="#000000" stroke-width="0.100" />
<text x="44.470" y="6.300"  fill="#000000" text-anchor="middle" font-size="0.80" font-family="monospace" font-style="normal" font-weight="400">
Team</text>
<rect x="13.450" y="18.500" width="2.940" height="1.800" fill="#FFFFFF" stroke="none" stroke-width="0"/>
<rect x="13.450" y="18.500" width="2.940" height="1.800" fill="none" stroke="#000000" stroke-width="0.100" />
<text x="14.920" y="19.600"  fill="#000000" text-anchor="middle" font-size="0.80" font-family="monospace" font-style="normal" font-weight="400">
Game</text>
<rect x="29.500" y="19.250" width="2.940" height="1.800" fill="#FFFFFF" stroke="none" stroke-width="0"/>
<rect x="29.500" y="19.250" width="2.940" height="1.800" fill="none" stroke="#000000" stroke-width="0.100" />
<text x="30.970" y="20.350"  fill="#000000" text-anchor="middle" font-size="0.80" font-family="monospace" font-style="normal" font-weight="400">
Goal</text>
<ellipse cx="44.493" cy="2.316" rx="1.385" ry="0.900" fill="#FFFFFF" stroke="none"  /><ellipse cx="44.493" cy="2.316" rx="1.385" ry="0.900" fill="none" stroke="#000000"  stroke-width="0.100" /><text x="44.493" y="2.516"  fill="#000000" text-anchor="middle" font-size="0.80" font-family="monospace" font-style="normal" font-weight="400">
Id</text>
<line x1="44.108" y1="2.716" x2="44.878" y2="2.716" stroke="#000000" stroke-width="0.100" />
<ellipse cx="46.678" cy="0.850" rx="1.770" ry="0.900" fill="#FFFFFF" stroke="none"  /><ellipse cx="46.678" cy="0.850" rx="1.770" ry="0.900" fill="none" stroke="#000000"  stroke-width="0.100" /><text x="46.678" y="1.050"  fill="#000000" text-anchor="middle" font-size="0.80" font-family="monospace" font-style="normal" font-weight="400">
Namn</text>
<line x1="44.488" y1="3.266" x2="44.479" y2="4.663" stroke="#000000" stroke-width="0.100" />
<polygon fill="#000000" stroke="none" stroke-width="0.100" points="44.477,5.038 44.230,4.536 44.479,4.663 44.730,4.540 "/>
<polygon fill="none" stroke="#000000" stroke-width="0.100"  points="44.477,5.038 44.230,4.536 44.479,4.663 44.730,4.540 "/>
<line x1="46.289" y1="1.776" x2="45.058" y2="4.701" stroke="#000000" stroke-width="0.100" />
<polygon fill="#000000" stroke="none" stroke-width="0.100" points="44.913,5.047 44.876,4.489 45.058,4.701 45.337,4.683 "/>
<polygon fill="none" stroke="#000000" stroke-width="0.100"  points="44.913,5.047 44.876,4.489 45.058,4.701 45.337,4.683 "/>
<ellipse cx="4.820" cy="2.900" rx="1.770" ry="0.900" fill="#FFFFFF" stroke="none"  /><ellipse cx="4.820" cy="2.900" rx="1.770" ry="0.900" fill="none" stroke="#000000"  stroke-width="0.100" /><text x="4.820" y="3.100"  fill="#000000" text-anchor="middle" font-size="0.80" font-family="monospace" font-style="normal" font-weight="400">
Namn</text>
<ellipse cx="4.785" cy="4.900" rx="1.385" ry="0.900" fill="#FFFFFF" stroke="none"  /><ellipse cx="4.785" cy="4.900" rx="1.385" ry="0.900" fill="none" stroke="#000000"  stroke-width="0.100" /><text x="4.785" y="5.100"  fill="#000000" text-anchor="middle" font-size="0.80" font-family="monospace" font-style="normal" font-weight="400">
Id</text>
<line x1="4.400" y1="5.300" x2="5.170" y2="5.300" stroke="#000000" stroke-width="0.100" />
<rect x="7.900" y="6.700" width="3.710" height="1.800" fill="#FFFFFF" stroke="none" stroke-width="0"/>
<rect x="7.900" y="6.700" width="3.710" height="1.800" fill="none" stroke="#000000" stroke-width="0.100" />
<text x="9.755" y="7.800"  fill="#000000" text-anchor="middle" font-size="0.80" font-family="monospace" font-style="normal" font-weight="400">
Person</text>
<ellipse cx="9.810" cy="3.800" rx="3.310" ry="0.900" fill="#FFFFFF" stroke="none"  /><ellipse cx="9.810" cy="3.800" rx="3.310" ry="0.900" fill="none" stroke="#000000"  stroke-width="0.100" /><text x="9.810" y="4.000"  fill="#000000" text-anchor="middle" font-size="0.80" font-family="monospace" font-style="normal" font-weight="400">
Personnummer</text>
<line x1="5.882" y1="5.496" x2="7.579" y2="6.418" stroke="#000000" stroke-width="0.100" />
<polygon fill="#000000" stroke="none" stroke-width="0.100" points="7.908,6.597 7.350,6.578 7.579,6.418 7.588,6.138 "/>
<polygon fill="none" stroke="#000000" stroke-width="0.100"  points="7.908,6.597 7.350,6.578 7.579,6.418 7.588,6.138 "/>
<line x1="5.689" y1="3.727" x2="8.407" y2="6.316" stroke="#000000" stroke-width="0.100" />
<polygon fill="#000000" stroke="none" stroke-width="0.100" points="8.679,6.575 8.144,6.411 8.407,6.316 8.489,6.049 "/>
<polygon fill="none" stroke="#000000" stroke-width="0.100"  points="8.679,6.575 8.144,6.411 8.407,6.316 8.489,6.049 "/>
<line x1="9.803" y1="4.275" x2="9.776" y2="6.163" stroke="#000000" stroke-width="0.100" />
<polygon fill="#000000" stroke="none" stroke-width="0.100" points="9.770,6.538 9.528,6.034 9.776,6.163 10.028,6.041 "/>
<polygon fill="none" stroke="#000000" stroke-width="0.100"  points="9.770,6.538 9.528,6.034 9.776,6.163 10.028,6.041 "/>
<ellipse cx="14.570" cy="25.700" rx="1.770" ry="0.900" fill="#FFFFFF" stroke="none"  /><ellipse cx="14.570" cy="25.700" rx="1.770" ry="0.900" fill="none" stroke="#000000"  stroke-width="0.100" /><text x="14.570" y="25.900"  fill="#000000" text-anchor="middle" font-size="0.80" font-family="monospace" font-style="normal" font-weight="400">
Date</text>
<ellipse cx="12.455" cy="23.500" rx="2.155" ry="0.900" fill="#FFFFFF" stroke="none"  /><ellipse cx="12.455" cy="23.500" rx="2.155" ry="0.900" fill="none" stroke="#000000"  stroke-width="0.100" /><text x="12.455" y="23.700"  fill="#000000" text-anchor="middle" font-size="0.80" font-family="monospace" font-style="normal" font-weight="400">
Status</text>
<line x1="14.623" y1="24.751" x2="14.840" y2="20.835" stroke="#000000" stroke-width="0.100" />
<polygon fill="#000000" stroke="none" stroke-width="0.100" points="14.861,20.461 15.083,20.974 14.840,20.835 14.584,20.946 "/>
<polygon fill="none" stroke="#000000" stroke-width="0.100"  points="14.861,20.461 15.083,20.974 14.840,20.835 14.584,20.946 "/>
<line x1="13.005" y1="22.585" x2="14.098" y2="20.767" stroke="#000000" stroke-width="0.100" />
<polygon fill="#000000" stroke="none" stroke-width="0.100" points="14.291,20.446 14.248,21.003 14.098,20.767 13.819,20.745 "/>
<polygon fill="none" stroke="#000000" stroke-width="0.100"  points="14.291,20.446 14.248,21.003 14.098,20.767 13.819,20.745 "/>
<ellipse cx="16.185" cy="24.000" rx="1.385" ry="0.900" fill="#FFFFFF" stroke="none"  /><ellipse cx="16.185" cy="24.000" rx="1.385" ry="0.900" fill="none" stroke="#000000"  stroke-width="0.100" /><text x="16.185" y="24.200"  fill="#000000" text-anchor="middle" font-size="0.80" font-family="monospace" font-style="normal" font-weight="400">
Id</text>
<line x1="15.800" y1="24.400" x2="16.570" y2="24.400" stroke="#000000" stroke-width="0.100" />
<line x1="15.938" y1="23.102" x2="15.310" y2="20.818" stroke="#000000" stroke-width="0.100" />
<polygon fill="#000000" stroke="none" stroke-width="0.100" points="15.211,20.457 15.584,20.873 15.310,20.818 15.102,21.005 "/>
<polygon fill="none" stroke="#000000" stroke-width="0.100"  points="15.211,20.457 15.584,20.873 15.310,20.818 15.102,21.005 "/>
<ellipse cx="32.635" cy="24.250" rx="1.385" ry="0.900" fill="#FFFFFF" stroke="none"  /><ellipse cx="32.635" cy="24.250" rx="1.385" ry="0.900" fill="none" stroke="#000000"  stroke-width="0.100" /><text x="32.635" y="24.450"  fill="#000000" text-anchor="middle" font-size="0.80" font-family="monospace" font-style="normal" font-weight="400">
Id</text>
<line x1="32.250" y1="24.650" x2="33.020" y2="24.650" stroke="#000000" stroke-width="0.100" />
<line x1="32.263" y1="23.335" x2="31.539" y2="21.551" stroke="#000000" stroke-width="0.100" />
<polygon fill="#000000" stroke="none" stroke-width="0.100" points="31.398,21.204 31.818,21.573 31.539,21.551 31.354,21.761 "/>
<polygon fill="none" stroke="#000000" stroke-width="0.100"  points="31.398,21.204 31.818,21.573 31.539,21.551 31.354,21.761 "/>
<ellipse cx="35.670" cy="23.750" rx="1.770" ry="0.900" fill="#FFFFFF" stroke="none"  /><ellipse cx="35.670" cy="23.750" rx="1.770" ry="0.900" fill="none" stroke="#000000"  stroke-width="0.100" /><text x="35.670" y="23.950"  fill="#000000" text-anchor="middle" font-size="0.80" font-family="monospace" font-style="normal" font-weight="400">
Type</text>
<line x1="34.656" y1="22.973" x2="32.597" y2="21.396" stroke="#000000" stroke-width="0.100" />
<polygon fill="#000000" stroke="none" stroke-width="0.100" points="32.299,21.168 32.848,21.274 32.597,21.396 32.544,21.671 "/>
<polygon fill="none" stroke="#000000" stroke-width="0.100"  points="32.299,21.168 32.848,21.274 32.597,21.396 32.544,21.671 "/>
<rect x="21.700" y="12.450" width="3.325" height="1.800" fill="#FFFFFF" stroke="none" stroke-width="0"/>
<rect x="21.700" y="12.450" width="3.325" height="1.800" fill="none" stroke="#000000" stroke-width="0.100" />
<text x="23.363" y="13.550"  fill="#000000" text-anchor="middle" font-size="0.80" font-family="monospace" font-style="normal" font-weight="400">
Serie</text>
<ellipse cx="15.835" cy="12.850" rx="1.385" ry="0.900" fill="#FFFFFF" stroke="none"  /><ellipse cx="15.835" cy="12.850" rx="1.385" ry="0.900" fill="none" stroke="#000000"  stroke-width="0.100" /><text x="15.835" y="13.050"  fill="#000000" text-anchor="middle" font-size="0.80" font-family="monospace" font-style="normal" font-weight="400">
Id</text>
<line x1="15.450" y1="13.250" x2="16.220" y2="13.250" stroke="#000000" stroke-width="0.100" />
<line x1="17.262" y1="12.945" x2="21.168" y2="13.204" stroke="#000000" stroke-width="0.100" />
<polygon fill="#000000" stroke="none" stroke-width="0.100" points="21.542,13.229 21.026,13.445 21.168,13.204 21.059,12.946 "/>
<polygon fill="none" stroke="#000000" stroke-width="0.100"  points="21.542,13.229 21.026,13.445 21.168,13.204 21.059,12.946 "/>
<rect x="30.650" y="11.150" width="6.405" height="1.800" fill="#FFFFFF" stroke="none" stroke-width="0"/>
<rect x="30.650" y="11.150" width="6.405" height="1.800" fill="none" stroke="#000000" stroke-width="0.100" />
<text x="33.852" y="12.250"  fill="#000000" text-anchor="middle" font-size="0.80" font-family="monospace" font-style="normal" font-weight="400">
TeamSerieLink</text>
<ellipse cx="36.485" cy="15.050" rx="1.385" ry="0.900" fill="#FFFFFF" stroke="none"  /><ellipse cx="36.485" cy="15.050" rx="1.385" ry="0.900" fill="none" stroke="#000000"  stroke-width="0.100" /><text x="36.485" y="15.250"  fill="#000000" text-anchor="middle" font-size="0.80" font-family="monospace" font-style="normal" font-weight="400">
Id</text>
<line x1="36.100" y1="15.450" x2="36.870" y2="15.450" stroke="#000000" stroke-width="0.100" />
<line x1="35.766" y1="14.231" x2="35.007" y2="13.366" stroke="#000000" stroke-width="0.100" />
<polygon fill="#000000" stroke="none" stroke-width="0.100" points="34.760,13.084 35.278,13.295 35.007,13.366 34.902,13.625 "/>
<polygon fill="none" stroke="#000000" stroke-width="0.100"  points="34.760,13.084 35.278,13.295 35.007,13.366 34.902,13.625 "/>
<polygon fill="#FFFFFF" stroke="none" stroke-width="0.100" points="39.621,10.220 41.583,9.043 43.546,10.220 41.583,11.398 "/>
<polygon fill="none" stroke="#000000" stroke-width="0.100"  points="39.621,10.220 41.583,9.043 43.546,10.220 41.583,11.398 "/>
<text x="39.321" y="9.920"  fill="#000000" text-anchor="end" font-size="0.80" font-family="monospace" font-style="normal" font-weight="400">
n</text>
<text x="43.846" y="9.920"  fill="#000000" text-anchor="start" font-size="0.80" font-family="monospace" font-style="normal" font-weight="400">
1</text>
<text x="41.583" y="10.420"  fill="#000000" text-anchor="middle" font-size="0.80" font-family="monospace" font-style="normal" font-weight="400">
Is in</text>
<ellipse cx="18.070" cy="10.500" rx="1.770" ry="0.900" fill="#FFFFFF" stroke="none"  /><ellipse cx="18.070" cy="10.500" rx="1.770" ry="0.900" fill="none" stroke="#000000"  stroke-width="0.100" /><text x="18.070" y="10.700"  fill="#000000" text-anchor="middle" font-size="0.80" font-family="monospace" font-style="normal" font-weight="400">
Name</text>
<line x1="19.329" y1="11.178" x2="21.222" y2="12.197" stroke="#000000" stroke-width="0.100" />
<polygon fill="#000000" stroke="none" stroke-width="0.100" points="21.552,12.375 20.993,12.358 21.222,12.197 21.230,11.918 "/>
<polygon fill="none" stroke="#000000" stroke-width="0.100"  points="21.552,12.375 20.993,12.358 21.222,12.197 21.230,11.918 "/>
<polyline fill="none" stroke="#000000" stroke-width="0.100"  points="41.583,8.992 41.583,8.021 44.470,8.021 44.470,7.050 "/>
<polyline fill="none" stroke="#000000" stroke-width="0.100"  points="37.105,12.050 38.341,12.050 38.341,10.220 39.576,10.220 "/>
<polygon fill="#FFFFFF" stroke="none" stroke-width="0.100" points="25.350,11.178 27.312,10.000 29.275,11.178 27.312,12.355 "/>
<polygon fill="none" stroke="#000000" stroke-width="0.100"  points="25.350,11.178 27.312,10.000 29.275,11.178 27.312,12.355 "/>
<text x="25.050" y="10.877"  fill="#000000" text-anchor="end" font-size="0.80" font-family="monospace" font-style="normal" font-weight="400">
1</text>
<text x="29.575" y="10.877"  fill="#000000" text-anchor="start" font-size="0.80" font-family="monospace" font-style="normal" font-weight="400">
n</text>
<text x="27.312" y="11.377"  fill="#000000" text-anchor="middle" font-size="0.80" font-family="monospace" font-style="normal" font-weight="400">
Teams</text>
<polyline fill="none" stroke="#000000" stroke-width="0.100"  points="29.320,11.178 29.960,11.178 29.960,12.050 30.600,12.050 "/>
<polyline fill="none" stroke="#000000" stroke-width="0.100"  points="23.363,12.400 23.363,11.178 25.305,11.178 "/>
<rect x="-12.220" y="17.662" width="3.710" height="1.800" fill="#FFFFFF" stroke="none" stroke-width="0"/>
<rect x="-12.220" y="17.662" width="3.710" height="1.800" fill="none" stroke="#000000" stroke-width="0.100" />
<text x="-10.365" y="18.762"  fill="#000000" text-anchor="middle" font-size="0.80" font-family="monospace" font-style="normal" font-weight="400">
Events</text>
<ellipse cx="-14.317" cy="12.558" rx="1.385" ry="0.900" fill="#FFFFFF" stroke="none"  /><ellipse cx="-14.317" cy="12.558" rx="1.385" ry="0.900" fill="none" stroke="#000000"  stroke-width="0.100" /><text x="-14.317" y="12.758"  fill="#000000" text-anchor="middle" font-size="0.80" font-family="monospace" font-style="normal" font-weight="400">
Id</text>
<line x1="-14.702" y1="12.958" x2="-13.932" y2="12.958" stroke="#000000" stroke-width="0.100" />
<ellipse cx="-15.655" cy="17.948" rx="1.770" ry="0.900" fill="#FFFFFF" stroke="none"  /><ellipse cx="-15.655" cy="17.948" rx="1.770" ry="0.900" fill="none" stroke="#000000"  stroke-width="0.100" /><text x="-15.655" y="18.149"  fill="#000000" text-anchor="middle" font-size="0.80" font-family="monospace" font-style="normal" font-weight="400">
Type</text>
<line x1="-13.746" y1="13.427" x2="-11.258" y2="17.205" stroke="#000000" stroke-width="0.100" />
<polygon fill="#000000" stroke="none" stroke-width="0.100" points="-11.052,17.518 -11.536,17.238 -11.258,17.205 -11.118,16.963 "/>
<polygon fill="none" stroke="#000000" stroke-width="0.100"  points="-11.052,17.518 -11.536,17.238 -11.258,17.205 -11.118,16.963 "/>
<line x1="-13.880" y1="18.154" x2="-12.754" y2="18.285" stroke="#000000" stroke-width="0.100" />
<polygon fill="#000000" stroke="none" stroke-width="0.100" points="-12.382,18.328 -12.907,18.519 -12.754,18.285 -12.849,18.022 "/>
<polygon fill="none" stroke="#000000" stroke-width="0.100"  points="-12.382,18.328 -12.907,18.519 -12.754,18.285 -12.849,18.022 "/>
<polygon fill="#FFFFFF" stroke="none" stroke-width="0.100" points="20.800,20.009 23.148,18.600 25.495,20.009 23.148,21.417 "/>
<polygon fill="none" stroke="#000000" stroke-width="0.100"  points="20.800,20.009 23.148,18.600 25.495,20.009 23.148,21.417 "/>
<text x="20.500" y="19.709"  fill="#000000" text-anchor="end" font-size="0.80" font-family="monospace" font-style="normal" font-weight="400">
1</text>
<text x="25.795" y="19.709"  fill="#000000" text-anchor="start" font-size="0.80" font-family="monospace" font-style="normal" font-weight="400">
n</text>
<text x="23.148" y="20.209"  fill="#000000" text-anchor="middle" font-size="0.80" font-family="monospace" font-style="normal" font-weight="400">
Happend</text>
<polyline fill="none" stroke="#000000" stroke-width="0.100"  points="16.440,19.400 18.595,19.400 18.595,20.009 20.751,20.009 "/>
<polyline fill="none" stroke="#000000" stroke-width="0.100"  points="25.544,20.009 27.497,20.009 27.497,20.150 29.450,20.150 "/>
<polygon fill="#FFFFFF" stroke="none" stroke-width="0.100" points="41.550,18.562 43.320,17.500 45.090,18.562 43.320,19.624 "/>
<polygon fill="none" stroke="#000000" stroke-width="0.100"  points="41.550,18.562 43.320,17.500 45.090,18.562 43.320,19.624 "/>
<text x="41.250" y="18.262"  fill="#000000" text-anchor="end" font-size="0.80" font-family="monospace" font-style="normal" font-weight="400">
n</text>
<text x="45.390" y="18.262"  fill="#000000" text-anchor="start" font-size="0.80" font-family="monospace" font-style="normal" font-weight="400">
1</text>
<text x="43.320" y="18.762"  fill="#000000" text-anchor="middle" font-size="0.80" font-family="monospace" font-style="normal" font-weight="400">
Owns</text>
<polyline fill="none" stroke="#000000" stroke-width="0.100"  points="32.490,20.150 37.020,20.150 37.020,18.562 41.550,18.562 "/>
<polyline fill="none" stroke="#000000" stroke-width="0.100"  points="44.470,7.050 44.470,12.806 45.090,12.806 45.090,18.562 "/>
<polygon fill="#FFFFFF" stroke="none" stroke-width="0.100" points="9.700,14.396 11.277,13.450 12.855,14.396 11.277,15.343 "/>
<polygon fill="none" stroke="#000000" stroke-width="0.100"  points="9.700,14.396 11.277,13.450 12.855,14.396 11.277,15.343 "/>
<text x="9.400" y="14.096"  fill="#000000" text-anchor="end" font-size="0.80" font-family="monospace" font-style="normal" font-weight="400">
1</text>
<text x="13.155" y="14.096"  fill="#000000" text-anchor="start" font-size="0.80" font-family="monospace" font-style="normal" font-weight="400">
n</text>
<text x="11.277" y="14.596"  fill="#000000" text-anchor="middle" font-size="0.80" font-family="monospace" font-style="normal" font-weight="400">
Did</text>
<polyline fill="none" stroke="#000000" stroke-width="0.100"  points="12.855,14.396 12.855,17.900 30.970,17.900 30.970,19.200 "/>
<polyline fill="none" stroke="#000000" stroke-width="0.100"  points="9.700,14.396 9.700,14.500 9.755,14.500 9.755,8.500 "/>
<polygon fill="#FFFFFF" stroke="none" stroke-width="0.100" points="-3.947,20.992 -1.600,19.584 0.748,20.992 -1.600,22.401 "/>
<polygon fill="none" stroke="#000000" stroke-width="0.100"  points="-3.947,20.992 -1.600,19.584 0.748,20.992 -1.600,22.401 "/>
<text x="-4.247" y="20.692"  fill="#000000" text-anchor="end" font-size="0.80" font-family="monospace" font-style="normal" font-weight="400">
n</text>
<text x="1.048" y="20.692"  fill="#000000" text-anchor="start" font-size="0.80" font-family="monospace" font-style="normal" font-weight="400">
1</text>
<text x="-1.600" y="21.192"  fill="#000000" text-anchor="middle" font-size="0.80" font-family="monospace" font-style="normal" font-weight="400">
Happend</text>
<polyline fill="none" stroke="#000000" stroke-width="0.100"  points="-8.510,18.562 -6.487,18.562 -6.487,20.313 -3.947,20.313 -3.947,20.992 "/>
<polyline fill="none" stroke="#000000" stroke-width="0.100"  points="0.748,20.992 7.074,20.992 7.074,19.400 13.400,19.400 "/>
<rect x="26.550" y="28.500" width="3.325" height="1.800" fill="#FFFFFF" stroke="none" stroke-width="0"/>
<rect x="26.550" y="28.500" width="3.325" height="1.800" fill="none" stroke="#000000" stroke-width="0.100" />
<text x="28.213" y="29.600"  fill="#000000" text-anchor="middle" font-size="0.80" font-family="monospace" font-style="normal" font-weight="400">
Arena</text>
<polygon fill="#FFFFFF" stroke="none" stroke-width="0.100" points="-9.884,11.762 -8.306,10.816 -6.729,11.762 -8.306,12.709 "/>
<polygon fill="none" stroke="#000000" stroke-width="0.100"  points="-9.884,11.762 -8.306,10.816 -6.729,11.762 -8.306,12.709 "/>
<text x="-10.184" y="11.462"  fill="#000000" text-anchor="end" font-size="0.80" font-family="monospace" font-style="normal" font-weight="400">
n</text>
<text x="-6.429" y="11.462"  fill="#000000" text-anchor="start" font-size="0.80" font-family="monospace" font-style="normal" font-weight="400">
1</text>
<text x="-8.306" y="11.962"  fill="#000000" text-anchor="middle" font-size="0.80" font-family="monospace" font-style="normal" font-weight="400">
Did</text>
<polyline fill="none" stroke="#000000" stroke-width="0.100"  points="-10.365,17.612 -10.365,14.687 -9.884,14.687 -9.884,11.762 "/>
<polyline fill="none" stroke="#000000" stroke-width="0.100"  points="-6.729,11.762 -6.729,10.156 9.755,10.156 9.755,8.550 "/>
<ellipse cx="28.620" cy="33.750" rx="1.770" ry="0.900" fill="#FFFFFF" stroke="none"  /><ellipse cx="28.620" cy="33.750" rx="1.770" ry="0.900" fill="none" stroke="#000000"  stroke-width="0.100" /><text x="28.620" y="33.950"  fill="#000000" text-anchor="middle" font-size="0.80" font-family="monospace" font-style="normal" font-weight="400">
Name</text>
<ellipse cx="26.185" cy="35.050" rx="1.385" ry="0.900" fill="#FFFFFF" stroke="none"  /><ellipse cx="26.185" cy="35.050" rx="1.385" ry="0.900" fill="none" stroke="#000000"  stroke-width="0.100" /><text x="26.185" y="35.250"  fill="#000000" text-anchor="middle" font-size="0.80" font-family="monospace" font-style="normal" font-weight="400">
Id</text>
<line x1="25.800" y1="35.450" x2="26.570" y2="35.450" stroke="#000000" stroke-width="0.100" />
<ellipse cx="31.355" cy="35.100" rx="2.155" ry="0.900" fill="#FFFFFF" stroke="none"  /><ellipse cx="31.355" cy="35.100" rx="2.155" ry="0.900" fill="none" stroke="#000000"  stroke-width="0.100" /><text x="31.355" y="35.300"  fill="#000000" text-anchor="middle" font-size="0.80" font-family="monospace" font-style="normal" font-weight="400">
Adress</text>
<ellipse cx="33.870" cy="33.700" rx="1.770" ry="0.900" fill="#FFFFFF" stroke="none"  /><ellipse cx="33.870" cy="33.700" rx="1.770" ry="0.900" fill="none" stroke="#000000"  stroke-width="0.100" /><text x="33.870" y="33.900"  fill="#000000" text-anchor="middle" font-size="0.80" font-family="monospace" font-style="normal" font-weight="400">
City</text>
<line x1="26.516" y1="34.127" x2="27.707" y2="30.808" stroke="#000000" stroke-width="0.100" />
<polygon fill="#000000" stroke="none" stroke-width="0.100" points="27.834,30.455 27.900,31.010 27.707,30.808 27.430,30.841 "/>
<polygon fill="none" stroke="#000000" stroke-width="0.100"  points="27.834,30.455 27.900,31.010 27.707,30.808 27.430,30.841 "/>
<line x1="28.531" y1="32.802" x2="28.347" y2="30.835" stroke="#000000" stroke-width="0.100" />
<polygon fill="#000000" stroke="none" stroke-width="0.100" points="28.312,30.461 28.607,30.936 28.347,30.835 28.110,30.982 "/>
<polygon fill="none" stroke="#000000" stroke-width="0.100"  points="28.312,30.461 28.607,30.936 28.347,30.835 28.110,30.982 "/>
<line x1="30.848" y1="34.180" x2="28.971" y2="30.776" stroke="#000000" stroke-width="0.100" />
<polygon fill="#000000" stroke="none" stroke-width="0.100" points="28.790,30.448 29.250,30.765 28.971,30.776 28.813,31.006 "/>
<polygon fill="none" stroke="#000000" stroke-width="0.100"  points="28.790,30.448 29.250,30.765 28.971,30.776 28.813,31.006 "/>
<line x1="32.846" y1="32.922" x2="29.849" y2="30.644" stroke="#000000" stroke-width="0.100" />
<polygon fill="#000000" stroke="none" stroke-width="0.100" points="29.551,30.417 30.100,30.521 29.849,30.644 29.798,30.919 "/>
<polygon fill="none" stroke="#000000" stroke-width="0.100"  points="29.551,30.417 30.100,30.521 29.849,30.644 29.798,30.919 "/>
<ellipse cx="34.362" cy="31.800" rx="1.962" ry="0.900" fill="#FFFFFF" stroke="none"  /><ellipse cx="34.362" cy="31.800" rx="1.962" ry="0.900" fill="none" stroke="#000000"  stroke-width="0.100" /><text x="34.362" y="32.000"  fill="#000000" text-anchor="middle" font-size="0.80" font-family="monospace" font-style="normal" font-weight="400">
Owner</text>
<line x1="32.821" y1="31.199" x2="30.378" y2="30.245" stroke="#000000" stroke-width="0.100" />
<polygon fill="#000000" stroke="none" stroke-width="0.100" points="30.029,30.109 30.586,30.058 30.378,30.245 30.404,30.524 "/>
<polygon fill="none" stroke="#000000" stroke-width="0.100"  points="30.029,30.109 30.586,30.058 30.378,30.245 30.404,30.524 "/>
<polygon fill="#FFFFFF" stroke="none" stroke-width="0.100" points="17.600,16.143 19.755,14.850 21.910,16.143 19.755,17.436 "/>
<polygon fill="none" stroke="#000000" stroke-width="0.100"  points="17.600,16.143 19.755,14.850 21.910,16.143 19.755,17.436 "/>
<text x="17.300" y="15.843"  fill="#000000" text-anchor="end" font-size="0.80" font-family="monospace" font-style="normal" font-weight="400">
n</text>
<text x="22.210" y="15.843"  fill="#000000" text-anchor="start" font-size="0.80" font-family="monospace" font-style="normal" font-weight="400">
1</text>
<text x="19.755" y="16.343"  fill="#000000" text-anchor="middle" font-size="0.80" font-family="monospace" font-style="normal" font-weight="400">
Was in</text>
<polyline fill="none" stroke="#000000" stroke-width="0.100"  points="17.600,16.143 17.600,17.500 14.920,17.500 14.920,18.450 "/>
<polyline fill="none" stroke="#000000" stroke-width="0.100"  points="23.363,14.300 23.363,16.143 21.910,16.143 "/>
<polygon fill="#FFFFFF" stroke="none" stroke-width="0.100" points="18.900,26.152 21.633,24.512 24.365,26.152 21.633,27.791 "/>
<polygon fill="none" stroke="#000000" stroke-width="0.100"  points="18.900,26.152 21.633,24.512 24.365,26.152 21.633,27.791 "/>
<text x="18.600" y="25.852"  fill="#000000" text-anchor="end" font-size="0.80" font-family="monospace" font-style="normal" font-weight="400">
n</text>
<text x="24.665" y="25.852"  fill="#000000" text-anchor="start" font-size="0.80" font-family="monospace" font-style="normal" font-weight="400">
1</text>
<text x="21.633" y="26.352"  fill="#000000" text-anchor="middle" font-size="0.80" font-family="monospace" font-style="normal" font-weight="400">
Played in</text>
<polyline fill="none" stroke="#000000" stroke-width="0.100"  points="16.440,19.400 17.670,19.400 17.670,26.152 18.900,26.152 "/>
<polyline fill="none" stroke="#000000" stroke-width="0.100"  points="24.365,26.152 25.432,26.152 25.432,29.400 26.500,29.400 "/>
<rect x="2.000" y="29.312" width="4.480" height="1.800" fill="#FFFFFF" stroke="none" stroke-width="0"/>
<rect x="2.000" y="29.312" width="4.480" height="1.800" fill="none" stroke="#000000" stroke-width="0.100" />
<text x="4.240" y="30.413"  fill="#000000" text-anchor="middle" font-size="0.80" font-family="monospace" font-style="normal" font-weight="400">
Audience</text>
<ellipse cx="-1.865" cy="31.612" rx="1.385" ry="0.900" fill="#FFFFFF" stroke="none"  /><ellipse cx="-1.865" cy="31.612" rx="1.385" ry="0.900" fill="none" stroke="#000000"  stroke-width="0.100" /><text x="-1.865" y="31.812"  fill="#000000" text-anchor="middle" font-size="0.80" font-family="monospace" font-style="normal" font-weight="400">
Id</text>
<line x1="-2.250" y1="32.012" x2="-1.480" y2="32.012" stroke="#000000" stroke-width="0.100" />
<line x1="-0.511" y1="31.302" x2="1.475" y2="30.846" stroke="#000000" stroke-width="0.100" />
<polygon fill="#000000" stroke="none" stroke-width="0.100" points="1.841,30.763 1.409,31.118 1.475,30.846 1.298,30.631 "/>
<polygon fill="none" stroke="#000000" stroke-width="0.100"  points="1.841,30.763 1.409,31.118 1.475,30.846 1.298,30.631 "/>
<ellipse cx="0.745" cy="33.663" rx="3.695" ry="0.900" fill="#FFFFFF" stroke="none"  /><ellipse cx="0.745" cy="33.663" rx="3.695" ry="0.900" fill="none" stroke="#000000"  stroke-width="0.100" /><text x="0.745" y="33.863"  fill="#000000" text-anchor="middle" font-size="0.80" font-family="monospace" font-style="normal" font-weight="400">
Total watching</text>
<line x1="1.666" y1="32.753" x2="2.934" y2="31.501" stroke="#000000" stroke-width="0.100" />
<polygon fill="#000000" stroke="none" stroke-width="0.100" points="3.201,31.238 3.021,31.767 2.934,31.501 2.670,31.411 "/>
<polygon fill="none" stroke="#000000" stroke-width="0.100"  points="3.201,31.238 3.021,31.767 2.934,31.501 2.670,31.411 "/>
<polygon fill="#FFFFFF" stroke="none" stroke-width="0.100" points="14.300,30.717 17.225,28.962 20.150,30.717 17.225,32.472 "/>
<polygon fill="none" stroke="#000000" stroke-width="0.100"  points="14.300,30.717 17.225,28.962 20.150,30.717 17.225,32.472 "/>
<text x="14.000" y="30.417"  fill="#000000" text-anchor="end" font-size="0.80" font-family="monospace" font-style="normal" font-weight="400">
1</text>
<text x="20.450" y="30.417"  fill="#000000" text-anchor="start" font-size="0.80" font-family="monospace" font-style="normal" font-weight="400">
1</text>
<text x="17.225" y="30.918"  fill="#000000" text-anchor="middle" font-size="0.80" font-family="monospace" font-style="normal" font-weight="400">
Watched in</text>
<polyline fill="none" stroke="#000000" stroke-width="0.100"  points="6.530,30.212 10.415,30.212 10.415,30.717 14.300,30.717 "/>
<polyline fill="none" stroke="#000000" stroke-width="0.100"  points="20.150,30.717 23.325,30.717 23.325,29.400 26.500,29.400 "/>
<polygon fill="#FFFFFF" stroke="none" stroke-width="0.100" points="2.650,24.849 5.960,22.863 9.270,24.849 5.960,26.835 "/>
<polygon fill="none" stroke="#000000" stroke-width="0.100"  points="2.650,24.849 5.960,22.863 9.270,24.849 5.960,26.835 "/>
<text x="2.350" y="24.549"  fill="#000000" text-anchor="end" font-size="0.80" font-family="monospace" font-style="normal" font-weight="400">
1</text>
<text x="9.570" y="24.549"  fill="#000000" text-anchor="start" font-size="0.80" font-family="monospace" font-style="normal" font-weight="400">
1</text>
<text x="5.960" y="25.049"  fill="#000000" text-anchor="middle" font-size="0.80" font-family="monospace" font-style="normal" font-weight="400">
Watched Game</text>
<polyline fill="none" stroke="#000000" stroke-width="0.100"  points="4.240,29.262 4.240,27.055 2.650,27.055 2.650,24.849 "/>
<polyline fill="none" stroke="#000000" stroke-width="0.100"  points="9.270,24.849 9.350,24.849 9.350,19.400 13.401,19.400 "/>
<rect x="22.550" y="5.463" width="6.790" height="1.800" fill="#FFFFFF" stroke="none" stroke-width="0"/>
<rect x="22.550" y="5.463" width="6.790" height="1.800" fill="none" stroke="#000000" stroke-width="0.100" />
<text x="25.945" y="6.563"  fill="#000000" text-anchor="middle" font-size="0.80" font-family="monospace" font-style="normal" font-weight="400">
TeamPersonLink</text>
<ellipse cx="24.861" cy="1.943" rx="1.385" ry="0.900" fill="#FFFFFF" stroke="none"  /><ellipse cx="24.861" cy="1.943" rx="1.385" ry="0.900" fill="none" stroke="#000000"  stroke-width="0.100" /><text x="24.861" y="2.143"  fill="#000000" text-anchor="middle" font-size="0.80" font-family="monospace" font-style="normal" font-weight="400">
Id</text>
<line x1="24.476" y1="2.343" x2="25.246" y2="2.343" stroke="#000000" stroke-width="0.100" />
<ellipse cx="28.241" cy="2.921" rx="2.540" ry="0.900" fill="#FFFFFF" stroke="none"  /><ellipse cx="28.241" cy="2.921" rx="2.540" ry="0.900" fill="none" stroke="#000000"  stroke-width="0.100" /><text x="28.241" y="3.121"  fill="#000000" text-anchor="middle" font-size="0.80" font-family="monospace" font-style="normal" font-weight="400">
JoinDate</text>
<line x1="25.091" y1="2.880" x2="25.596" y2="4.940" stroke="#000000" stroke-width="0.100" />
<polygon fill="#000000" stroke="none" stroke-width="0.100" points="25.685,5.304 25.324,4.878 25.596,4.940 25.809,4.759 "/>
<polygon fill="none" stroke="#000000" stroke-width="0.100"  points="25.685,5.304 25.324,4.878 25.596,4.940 25.809,4.759 "/>
<line x1="27.630" y1="3.837" x2="26.849" y2="5.008" stroke="#000000" stroke-width="0.100" />
<polygon fill="#000000" stroke="none" stroke-width="0.100" points="26.641,5.320 26.710,4.765 26.849,5.008 27.126,5.043 "/>
<polygon fill="none" stroke="#000000" stroke-width="0.100"  points="26.641,5.320 26.710,4.765 26.849,5.008 27.126,5.043 "/>
<polygon fill="#FFFFFF" stroke="none" stroke-width="0.100" points="15.800,6.540 17.762,5.363 19.725,6.540 17.762,7.718 "/>
<polygon fill="none" stroke="#000000" stroke-width="0.100"  points="15.800,6.540 17.762,5.363 19.725,6.540 17.762,7.718 "/>
<text x="15.500" y="6.240"  fill="#000000" text-anchor="end" font-size="0.80" font-family="monospace" font-style="normal" font-weight="400">
1</text>
<text x="20.025" y="6.240"  fill="#000000" text-anchor="start" font-size="0.80" font-family="monospace" font-style="normal" font-weight="400">
n</text>
<text x="17.762" y="6.740"  fill="#000000" text-anchor="middle" font-size="0.80" font-family="monospace" font-style="normal" font-weight="400">
Is in</text>
<polyline fill="none" stroke="#000000" stroke-width="0.100"  points="11.610,7.600 13.705,7.600 13.705,6.540 15.800,6.540 "/>
<polyline fill="none" stroke="#000000" stroke-width="0.100"  points="22.550,6.363 21.138,6.363 21.138,6.540 19.725,6.540 "/>
<polygon fill="#FFFFFF" stroke="none" stroke-width="0.100" points="33.300,5.968 36.225,4.213 39.150,5.968 36.225,7.723 "/>
<polygon fill="none" stroke="#000000" stroke-width="0.100"  points="33.300,5.968 36.225,4.213 39.150,5.968 36.225,7.723 "/>
<text x="33.000" y="5.668"  fill="#000000" text-anchor="end" font-size="0.80" font-family="monospace" font-style="normal" font-weight="400">
n</text>
<text x="39.450" y="5.668"  fill="#000000" text-anchor="start" font-size="0.80" font-family="monospace" font-style="normal" font-weight="400">
1</text>
<text x="36.225" y="6.168"  fill="#000000" text-anchor="middle" font-size="0.80" font-family="monospace" font-style="normal" font-weight="400">
Has Player</text>
<polyline fill="none" stroke="#000000" stroke-width="0.100"  points="29.390,6.363 31.345,6.363 31.345,5.968 33.300,5.968 "/>
<polyline fill="none" stroke="#000000" stroke-width="0.100"  points="39.150,5.968 41.050,5.968 41.050,6.100 42.950,6.100 "/>
<rect x="-1.707" y="13.961" width="6.790" height="1.800" fill="#FFFFFF" stroke="none" stroke-width="0"/>
<rect x="-1.707" y="13.961" width="6.790" height="1.800" fill="none" stroke="#000000" stroke-width="0.100" />
<text x="1.688" y="15.061"  fill="#000000" text-anchor="middle" font-size="0.80" font-family="monospace" font-style="normal" font-weight="400">
GamePersonLink</text>
<ellipse cx="-5.032" cy="15.556" rx="1.385" ry="0.900" fill="#FFFFFF" stroke="none"  /><ellipse cx="-5.032" cy="15.556" rx="1.385" ry="0.900" fill="none" stroke="#000000"  stroke-width="0.100" /><text x="-5.032" y="15.756"  fill="#000000" text-anchor="middle" font-size="0.80" font-family="monospace" font-style="normal" font-weight="400">
Id</text>
<line x1="-5.417" y1="15.956" x2="-4.647" y2="15.956" stroke="#000000" stroke-width="0.100" />
<line x1="-3.614" y1="15.409" x2="-2.242" y2="15.267" stroke="#000000" stroke-width="0.100" />
<polygon fill="#000000" stroke="none" stroke-width="0.100" points="-1.869,15.229 -2.340,15.529 -2.242,15.267 -2.392,15.032 "/>
<polygon fill="none" stroke="#000000" stroke-width="0.100"  points="-1.869,15.229 -2.340,15.529 -2.242,15.267 -2.392,15.032 "/>
<rect x="17.472" y="-1.760" width="2.940" height="1.800" fill="#FFFFFF" stroke="none" stroke-width="0"/>
<rect x="17.472" y="-1.760" width="2.940" height="1.800" fill="none" stroke="#000000" stroke-width="0.100" />
<text x="18.942" y="-0.660"  fill="#000000" text-anchor="middle" font-size="0.80" font-family="monospace" font-style="normal" font-weight="400">
Role</text>
<ellipse cx="16.180" cy="-4.133" rx="1.385" ry="0.900" fill="#FFFFFF" stroke="none"  /><ellipse cx="16.180" cy="-4.133" rx="1.385" ry="0.900" fill="none" stroke="#000000"  stroke-width="0.100" /><text x="16.180" y="-3.933"  fill="#000000" text-anchor="middle" font-size="0.80" font-family="monospace" font-style="normal" font-weight="400">
Id</text>
<line x1="15.795" y1="-3.733" x2="16.565" y2="-3.733" stroke="#000000" stroke-width="0.100" />
<ellipse cx="21.118" cy="-4.419" rx="1.770" ry="0.900" fill="#FFFFFF" stroke="none"  /><ellipse cx="21.118" cy="-4.419" rx="1.770" ry="0.900" fill="none" stroke="#000000"  stroke-width="0.100" /><text x="21.118" y="-4.219"  fill="#000000" text-anchor="middle" font-size="0.80" font-family="monospace" font-style="normal" font-weight="400">
Name</text>
<line x1="16.877" y1="-3.307" x2="17.826" y2="-2.182" stroke="#000000" stroke-width="0.100" />
<polygon fill="#000000" stroke="none" stroke-width="0.100" points="18.068,-1.896 17.555,-2.117 17.826,-2.182 17.937,-2.439 "/>
<polygon fill="none" stroke="#000000" stroke-width="0.100"  points="18.068,-1.896 17.555,-2.117 17.826,-2.182 17.937,-2.439 "/>
<line x1="20.567" y1="-3.516" x2="19.777" y2="-2.225" stroke="#000000" stroke-width="0.100" />
<polygon fill="#000000" stroke="none" stroke-width="0.100" points="19.581,-1.905 19.629,-2.462 19.777,-2.225 20.055,-2.201 "/>
<polygon fill="none" stroke="#000000" stroke-width="0.100"  points="19.581,-1.905 19.629,-2.462 19.777,-2.225 20.055,-2.201 "/>
<polygon fill="#FFFFFF" stroke="none" stroke-width="0.100" points="5.958,17.314 8.113,16.021 10.268,17.314 8.113,18.607 "/>
<polygon fill="none" stroke="#000000" stroke-width="0.100"  points="5.958,17.314 8.113,16.021 10.268,17.314 8.113,18.607 "/>
<text x="5.658" y="17.014"  fill="#000000" text-anchor="end" font-size="0.80" font-family="monospace" font-style="normal" font-weight="400">
n</text>
<text x="10.568" y="17.014"  fill="#000000" text-anchor="start" font-size="0.80" font-family="monospace" font-style="normal" font-weight="400">
1</text>
<text x="8.113" y="17.514"  fill="#000000" text-anchor="middle" font-size="0.80" font-family="monospace" font-style="normal" font-weight="400">
was in</text>
<polyline fill="none" stroke="#000000" stroke-width="0.100"  points="10.268,17.314 11.834,17.314 11.834,19.400 13.400,19.400 "/>
<polyline fill="none" stroke="#000000" stroke-width="0.100"  points="1.688,15.811 1.688,16.563 5.958,16.563 5.958,17.314 "/>
<polygon fill="#FFFFFF" stroke="none" stroke-width="0.100" points="2.808,11.764 4.963,10.471 7.118,11.764 4.963,13.057 "/>
<polygon fill="none" stroke="#000000" stroke-width="0.100"  points="2.808,11.764 4.963,10.471 7.118,11.764 4.963,13.057 "/>
<text x="2.508" y="11.464"  fill="#000000" text-anchor="end" font-size="0.80" font-family="monospace" font-style="normal" font-weight="400">
n</text>
<text x="7.418" y="11.464"  fill="#000000" text-anchor="start" font-size="0.80" font-family="monospace" font-style="normal" font-weight="400">
1</text>
<text x="4.963" y="11.964"  fill="#000000" text-anchor="middle" font-size="0.80" font-family="monospace" font-style="normal" font-weight="400">
was in</text>
<polyline fill="none" stroke="#000000" stroke-width="0.100"  points="7.118,11.764 7.118,10.157 9.755,10.157 9.755,8.550 "/>
<polyline fill="none" stroke="#000000" stroke-width="0.100"  points="2.808,11.764 2.808,12.837 1.688,12.837 1.688,13.910 "/>
<polygon fill="#FFFFFF" stroke="none" stroke-width="0.100" points="15.226,2.337 17.766,0.813 20.306,2.337 17.766,3.861 "/>
<polygon fill="none" stroke="#000000" stroke-width="0.100"  points="15.226,2.337 17.766,0.813 20.306,2.337 17.766,3.861 "/>
<text x="14.926" y="2.037"  fill="#000000" text-anchor="end" font-size="0.80" font-family="monospace" font-style="normal" font-weight="400">
n</text>
<text x="20.606" y="2.037"  fill="#000000" text-anchor="start" font-size="0.80" font-family="monospace" font-style="normal" font-weight="400">
1</text>
<text x="17.766" y="2.537"  fill="#000000" text-anchor="middle" font-size="0.80" font-family="monospace" font-style="normal" font-weight="400">
Has Role</text>
<polyline fill="none" stroke="#000000" stroke-width="0.100"  points="18.942,0.090 18.942,1.213 20.306,1.213 20.306,2.337 "/>
<polyline fill="none" stroke="#000000" stroke-width="0.100"  points="15.226,2.337 15.226,4.419 25.945,4.419 25.945,5.412 "/>
<rect x="53.726" y="5.469" width="6.020" height="1.800" fill="#FFFFFF" stroke="none" stroke-width="0"/>
<rect x="53.726" y="5.469" width="6.020" height="1.800" fill="none" stroke="#000000" stroke-width="0.100" />
<text x="56.736" y="6.569"  fill="#000000" text-anchor="middle" font-size="0.80" font-family="monospace" font-style="normal" font-weight="400">
Organization</text>
<ellipse cx="56.646" cy="1.268" rx="1.385" ry="0.900" fill="#FFFFFF" stroke="none"  /><ellipse cx="56.646" cy="1.268" rx="1.385" ry="0.900" fill="none" stroke="#000000"  stroke-width="0.100" /><text x="56.646" y="1.468"  fill="#000000" text-anchor="middle" font-size="0.80" font-family="monospace" font-style="normal" font-weight="400">
Id</text>
<line x1="56.261" y1="1.668" x2="57.031" y2="1.668" stroke="#000000" stroke-width="0.100" />
<ellipse cx="60.058" cy="1.848" rx="1.770" ry="0.900" fill="#FFFFFF" stroke="none"  /><ellipse cx="60.058" cy="1.848" rx="1.770" ry="0.900" fill="none" stroke="#000000"  stroke-width="0.100" /><text x="60.058" y="2.048"  fill="#000000" text-anchor="middle" font-size="0.80" font-family="monospace" font-style="normal" font-weight="400">
Name</text>
<line x1="56.662" y1="2.217" x2="56.711" y2="4.933" stroke="#000000" stroke-width="0.100" />
<polygon fill="#000000" stroke="none" stroke-width="0.100" points="56.717,5.308 56.458,4.812 56.711,4.933 56.958,4.803 "/>
<polygon fill="none" stroke="#000000" stroke-width="0.100"  points="56.717,5.308 56.458,4.812 56.711,4.933 56.958,4.803 "/>
<line x1="59.409" y1="2.732" x2="57.722" y2="5.027" stroke="#000000" stroke-width="0.100" />
<polygon fill="#000000" stroke="none" stroke-width="0.100" points="57.500,5.329 57.595,4.778 57.722,5.027 57.998,5.074 "/>
<polygon fill="none" stroke="#000000" stroke-width="0.100"  points="57.500,5.329 57.595,4.778 57.722,5.027 57.998,5.074 "/>
<polygon fill="#FFFFFF" stroke="none" stroke-width="0.100" points="48.210,6.241 49.980,5.179 51.750,6.241 49.980,7.303 "/>
<polygon fill="none" stroke="#000000" stroke-width="0.100"  points="48.210,6.241 49.980,5.179 51.750,6.241 49.980,7.303 "/>
<text x="47.910" y="5.941"  fill="#000000" text-anchor="end" font-size="0.80" font-family="monospace" font-style="normal" font-weight="400">
n</text>
<text x="52.050" y="5.941"  fill="#000000" text-anchor="start" font-size="0.80" font-family="monospace" font-style="normal" font-weight="400">
1</text>
<text x="49.980" y="6.441"  fill="#000000" text-anchor="middle" font-size="0.80" font-family="monospace" font-style="normal" font-weight="400">
Owns</text>
<polyline fill="none" stroke="#000000" stroke-width="0.100"  points="51.750,6.241 52.738,6.241 52.738,6.369 53.726,6.369 "/>
<polyline fill="none" stroke="#000000" stroke-width="0.100"  points="45.940,6.100 47.075,6.100 47.075,6.241 48.210,6.241 "/>
</svg>