<?xml version="1.0" encoding="UTF-8" standalone="no"?>
<!-- Created by diasvg.py -->
<svg width="78.650cm" height="35.950cm" viewBox="5.200 0.100 83.850 36.050"
 xmlns="http://www.w3.org/2000/svg"
 xmlns:xlink="http://www.w3.org/1999/xlink">
<rect x="49.400" y="3.650" width="7.460" height="0.900" fill="#FFFFFF" stroke="none" stroke-width="0"/>
<rect x="49.400" y="3.650" width="7.460" height="0.900" fill="none" stroke="#000000" stroke-width="0.100" />
<text x="53.130" y="4.350"  fill="#000000" text-anchor="middle" font-size="0.70" font-family="sans" font-style="normal" font-weight="700">
role</text>
<rect x="49.400" y="4.550" width="7.460" height="1.800" fill="#FFFFFF" stroke="none" stroke-width="0"/>
<rect x="49.400" y="4.550" width="7.460" height="1.800" fill="none" stroke="#000000" stroke-width="0.100" />
<polygon fill="#000000" stroke="none" stroke-width="0.010" points="49.550,5.050 49.650,5.200 49.750,5.050 49.650,4.900 "/>
<text x="49.850" y="5.350"  fill="#000000" text-anchor="start" font-size="0.80" font-family="monospace" font-style="normal" font-weight="400">
id</text>
<text x="51.890" y="5.350"  fill="#000000" text-anchor="start" font-size="0.80" font-family="monospace" font-style="normal" font-weight="400">
int(counter)</text>
<line x1="49.850" y1="5.430" x2="56.510" y2="5.430" stroke="#000000" stroke-width="0.050" />
<ellipse cx="49.650" cy="5.850" rx="0.100" ry="0.100" fill="#000000" stroke="none"  /><text x="49.850" y="6.150"  fill="#000000" text-anchor="start" font-size="0.80" font-family="monospace" font-style="normal" font-weight="400">
name</text>
<text x="51.890" y="6.150"  fill="#000000" text-anchor="start" font-size="0.80" font-family="monospace" font-style="normal" font-weight="400">
varchar(30)</text>
<rect x="37.500" y="4.850" width="9.000" height="0.900" fill="#FFFFFF" stroke="none" stroke-width="0"/>
<rect x="37.500" y="4.850" width="9.000" height="0.900" fill="none" stroke="#000000" stroke-width="0.100" />
<text x="42.000" y="5.550"  fill="#000000" text-anchor="middle" font-size="0.70" font-family="sans" font-style="normal" font-weight="700">
TeamPersonLink</text>
<rect x="37.500" y="5.750" width="9.000" height="3.400" fill="#FFFFFF" stroke="none" stroke-width="0"/>
<rect x="37.500" y="5.750" width="9.000" height="3.400" fill="none" stroke="#000000" stroke-width="0.100" />
<polygon fill="#000000" stroke="none" stroke-width="0.010" points="37.650,6.250 37.750,6.400 37.850,6.250 37.750,6.100 "/>
<text x="37.950" y="6.550"  fill="#000000" text-anchor="start" font-size="0.80" font-family="monospace" font-style="normal" font-weight="400">
id</text>
<text x="41.530" y="6.550"  fill="#000000" text-anchor="start" font-size="0.80" font-family="monospace" font-style="normal" font-weight="400">
int(counter)</text>
<line x1="37.950" y1="6.630" x2="46.150" y2="6.630" stroke="#000000" stroke-width="0.050" />
<ellipse cx="37.750" cy="7.050" rx="0.100" ry="0.100" fill="#000000" stroke="none"  /><text x="37.950" y="7.350"  fill="#000000" text-anchor="start" font-size="0.80" font-family="monospace" font-style="normal" font-weight="400">
joindate</text>
<text x="41.530" y="7.350"  fill="#000000" text-anchor="start" font-size="0.80" font-family="monospace" font-style="normal" font-weight="400">
timestamp</text>
<ellipse cx="37.750" cy="7.850" rx="0.100" ry="0.100" fill="none" stroke="#000000"  stroke-width="0.010" /><text x="37.950" y="8.150"  fill="#000000" text-anchor="start" font-size="0.80" font-family="monospace" font-style="normal" font-weight="400">
role_id</text>
<text x="41.530" y="8.150"  fill="#000000" text-anchor="start" font-size="0.80" font-family="monospace" font-style="normal" font-weight="400">
int</text>
<ellipse cx="37.750" cy="8.650" rx="0.100" ry="0.100" fill="none" stroke="#000000"  stroke-width="0.010" /><text x="37.950" y="8.950"  fill="#000000" text-anchor="start" font-size="0.80" font-family="monospace" font-style="normal" font-weight="400">
team_id</text>
<text x="41.530" y="8.950"  fill="#000000" text-anchor="start" font-size="0.80" font-family="monospace" font-style="normal" font-weight="400">
int</text>
<rect x="23.150" y="0.100" width="9.770" height="0.900" fill="#FFFFFF" stroke="none" stroke-width="0"/>
<rect x="23.150" y="0.100" width="9.770" height="0.900" fill="none" stroke="#000000" stroke-width="0.100" />
<text x="28.035" y="0.800"  fill="#000000" text-anchor="middle" font-size="0.70" font-family="sans" font-style="normal" font-weight="700">
person</text>
<rect x="23.150" y="1.000" width="9.770" height="3.400" fill="#FFFFFF" stroke="none" stroke-width="0"/>
<rect x="23.150" y="1.000" width="9.770" height="3.400" fill="none" stroke="#000000" stroke-width="0.100" />
<polygon fill="#000000" stroke="none" stroke-width="0.010" points="23.300,1.500 23.400,1.650 23.500,1.500 23.400,1.350 "/>
<text x="23.600" y="1.800"  fill="#000000" text-anchor="start" font-size="0.80" font-family="monospace" font-style="normal" font-weight="400">
id</text>
<text x="27.950" y="1.800"  fill="#000000" text-anchor="start" font-size="0.80" font-family="monospace" font-style="normal" font-weight="400">
int(counter)</text>
<line x1="23.600" y1="1.880" x2="32.570" y2="1.880" stroke="#000000" stroke-width="0.050" />
<ellipse cx="23.400" cy="2.300" rx="0.100" ry="0.100" fill="none" stroke="#000000"  stroke-width="0.010" /><text x="23.600" y="2.600"  fill="#000000" text-anchor="start" font-size="0.80" font-family="monospace" font-style="normal" font-weight="400">
fname</text>
<text x="27.950" y="2.600"  fill="#000000" text-anchor="start" font-size="0.80" font-family="monospace" font-style="normal" font-weight="400">
varchar(30)</text>
<ellipse cx="23.400" cy="3.100" rx="0.100" ry="0.100" fill="none" stroke="#000000"  stroke-width="0.010" /><text x="23.600" y="3.400"  fill="#000000" text-anchor="start" font-size="0.80" font-family="monospace" font-style="normal" font-weight="400">
sname</text>
<text x="27.950" y="3.400"  fill="#000000" text-anchor="start" font-size="0.80" font-family="monospace" font-style="normal" font-weight="400">
varchar(40)</text>
<ellipse cx="23.400" cy="3.900" rx="0.100" ry="0.100" fill="#000000" stroke="none"  /><text x="23.600" y="4.200"  fill="#000000" text-anchor="start" font-size="0.80" font-family="monospace" font-style="normal" font-weight="400">
social_sec</text>
<text x="27.950" y="4.200"  fill="#000000" text-anchor="start" font-size="0.80" font-family="monospace" font-style="normal" font-weight="400">
int</text>
<rect x="34.700" y="20.800" width="9.385" height="0.900" fill="#FFFFFF" stroke="none" stroke-width="0"/>
<rect x="34.700" y="20.800" width="9.385" height="0.900" fill="none" stroke="#000000" stroke-width="0.100" />
<text x="39.393" y="21.500"  fill="#000000" text-anchor="middle" font-size="0.70" font-family="sans" font-style="normal" font-weight="700">
game</text>
<rect x="34.700" y="21.700" width="9.385" height="5.800" fill="#FFFFFF" stroke="none" stroke-width="0"/>
<rect x="34.700" y="21.700" width="9.385" height="5.800" fill="none" stroke="#000000" stroke-width="0.100" />
<polygon fill="#000000" stroke="none" stroke-width="0.010" points="34.850,22.200 34.950,22.350 35.050,22.200 34.950,22.050 "/>
<text x="35.150" y="22.500"  fill="#000000" text-anchor="start" font-size="0.80" font-family="monospace" font-style="normal" font-weight="400">
id</text>
<line x1="35.150" y1="22.580" x2="40.270" y2="22.580" stroke="#000000" stroke-width="0.050" />
<ellipse cx="34.950" cy="23.000" rx="0.100" ry="0.100" fill="none" stroke="#000000"  stroke-width="0.010" /><text x="35.150" y="23.300"  fill="#000000" text-anchor="start" font-size="0.80" font-family="monospace" font-style="normal" font-weight="400">
start_time</text>
<text x="40.270" y="23.300"  fill="#000000" text-anchor="start" font-size="0.80" font-family="monospace" font-style="normal" font-weight="400">
timestamp</text>
<ellipse cx="34.950" cy="23.800" rx="0.100" ry="0.100" fill="#000000" stroke="none"  /><text x="35.150" y="24.100"  fill="#000000" text-anchor="start" font-size="0.80" font-family="monospace" font-style="normal" font-weight="400">
home_team_id</text>
<text x="40.270" y="24.100"  fill="#000000" text-anchor="start" font-size="0.80" font-family="monospace" font-style="normal" font-weight="400">
int</text>
<ellipse cx="34.950" cy="24.600" rx="0.100" ry="0.100" fill="#000000" stroke="none"  /><text x="35.150" y="24.900"  fill="#000000" text-anchor="start" font-size="0.80" font-family="monospace" font-style="normal" font-weight="400">
gone_team_id</text>
<text x="40.270" y="24.900"  fill="#000000" text-anchor="start" font-size="0.80" font-family="monospace" font-style="normal" font-weight="400">
int</text>
<ellipse cx="34.950" cy="25.400" rx="0.100" ry="0.100" fill="none" stroke="#000000"  stroke-width="0.010" /><text x="35.150" y="25.700"  fill="#000000" text-anchor="start" font-size="0.80" font-family="monospace" font-style="normal" font-weight="400">
status_id</text>
<text x="40.270" y="25.700"  fill="#000000" text-anchor="start" font-size="0.80" font-family="monospace" font-style="normal" font-weight="400">
int</text>
<ellipse cx="34.950" cy="26.200" rx="0.100" ry="0.100" fill="none" stroke="#000000"  stroke-width="0.010" /><text x="35.150" y="26.500"  fill="#000000" text-anchor="start" font-size="0.80" font-family="monospace" font-style="normal" font-weight="400">
arena_id</text>
<text x="40.270" y="26.500"  fill="#000000" text-anchor="start" font-size="0.80" font-family="monospace" font-style="normal" font-weight="400">
int</text>
<ellipse cx="34.950" cy="27.000" rx="0.100" ry="0.100" fill="none" stroke="#000000"  stroke-width="0.010" /><text x="35.150" y="27.300"  fill="#000000" text-anchor="start" font-size="0.80" font-family="monospace" font-style="normal" font-weight="400">
season_id</text>
<text x="40.270" y="27.300"  fill="#000000" text-anchor="start" font-size="0.80" font-family="monospace" font-style="normal" font-weight="400">
int</text>
<rect x="37.300" y="30.950" width="8.230" height="0.900" fill="#FFFFFF" stroke="none" stroke-width="0"/>
<rect x="37.300" y="30.950" width="8.230" height="0.900" fill="none" stroke="#000000" stroke-width="0.100" />
<text x="41.415" y="31.650"  fill="#000000" text-anchor="middle" font-size="0.70" font-family="sans" font-style="normal" font-weight="700">
arena</text>
<rect x="37.300" y="31.850" width="8.230" height="4.200" fill="#FFFFFF" stroke="none" stroke-width="0"/>
<rect x="37.300" y="31.850" width="8.230" height="4.200" fill="none" stroke="#000000" stroke-width="0.100" />
<polygon fill="#000000" stroke="none" stroke-width="0.010" points="37.450,32.350 37.550,32.500 37.650,32.350 37.550,32.200 "/>
<text x="37.750" y="32.650"  fill="#000000" text-anchor="start" font-size="0.80" font-family="monospace" font-style="normal" font-weight="400">
id</text>
<text x="40.560" y="32.650"  fill="#000000" text-anchor="start" font-size="0.80" font-family="monospace" font-style="normal" font-weight="400">
int(counter)</text>
<line x1="37.750" y1="32.730" x2="45.180" y2="32.730" stroke="#000000" stroke-width="0.050" />
<ellipse cx="37.550" cy="33.150" rx="0.100" ry="0.100" fill="none" stroke="#000000"  stroke-width="0.010" /><text x="37.750" y="33.450"  fill="#000000" text-anchor="start" font-size="0.80" font-family="monospace" font-style="normal" font-weight="400">
name</text>
<text x="40.560" y="33.450"  fill="#000000" text-anchor="start" font-size="0.80" font-family="monospace" font-style="normal" font-weight="400">
varchar(50)</text>
<ellipse cx="37.550" cy="33.950" rx="0.100" ry="0.100" fill="none" stroke="#000000"  stroke-width="0.010" /><text x="37.750" y="34.250"  fill="#000000" text-anchor="start" font-size="0.80" font-family="monospace" font-style="normal" font-weight="400">
adress</text>
<text x="40.560" y="34.250"  fill="#000000" text-anchor="start" font-size="0.80" font-family="monospace" font-style="normal" font-weight="400">
varchar(50)</text>
<ellipse cx="37.550" cy="34.750" rx="0.100" ry="0.100" fill="none" stroke="#000000"  stroke-width="0.010" /><text x="37.750" y="35.050"  fill="#000000" text-anchor="start" font-size="0.80" font-family="monospace" font-style="normal" font-weight="400">
city</text>
<text x="40.560" y="35.050"  fill="#000000" text-anchor="start" font-size="0.80" font-family="monospace" font-style="normal" font-weight="400">
varchar(30)</text>
<ellipse cx="37.550" cy="35.550" rx="0.100" ry="0.100" fill="none" stroke="#000000"  stroke-width="0.010" /><text x="37.750" y="35.850"  fill="#000000" text-anchor="start" font-size="0.80" font-family="monospace" font-style="normal" font-weight="400">
owner</text>
<text x="40.560" y="35.850"  fill="#000000" text-anchor="start" font-size="0.80" font-family="monospace" font-style="normal" font-weight="400">
int</text>
<rect x="51.950" y="22.150" width="8.615" height="0.900" fill="#FFFFFF" stroke="none" stroke-width="0"/>
<rect x="51.950" y="22.150" width="8.615" height="0.900" fill="none" stroke="#000000" stroke-width="0.100" />
<text x="56.258" y="22.850"  fill="#000000" text-anchor="middle" font-size="0.70" font-family="sans" font-style="normal" font-weight="700">
audience</text>
<rect x="51.950" y="23.050" width="8.615" height="2.600" fill="#FFFFFF" stroke="none" stroke-width="0"/>
<rect x="51.950" y="23.050" width="8.615" height="2.600" fill="none" stroke="#000000" stroke-width="0.100" />
<polygon fill="#000000" stroke="none" stroke-width="0.010" points="52.100,23.550 52.200,23.700 52.300,23.550 52.200,23.400 "/>
<text x="52.400" y="23.850"  fill="#000000" text-anchor="start" font-size="0.80" font-family="monospace" font-style="normal" font-weight="400">
id</text>
<text x="55.595" y="23.850"  fill="#000000" text-anchor="start" font-size="0.80" font-family="monospace" font-style="normal" font-weight="400">
int(counter)</text>
<line x1="52.400" y1="23.930" x2="60.215" y2="23.930" stroke="#000000" stroke-width="0.050" />
<ellipse cx="52.200" cy="24.350" rx="0.100" ry="0.100" fill="none" stroke="#000000"  stroke-width="0.010" /><text x="52.400" y="24.650"  fill="#000000" text-anchor="start" font-size="0.80" font-family="monospace" font-style="normal" font-weight="400">
total</text>
<text x="55.595" y="24.650"  fill="#000000" text-anchor="start" font-size="0.80" font-family="monospace" font-style="normal" font-weight="400">
int</text>
<ellipse cx="52.200" cy="25.150" rx="0.100" ry="0.100" fill="none" stroke="#000000"  stroke-width="0.010" /><text x="52.400" y="25.450"  fill="#000000" text-anchor="start" font-size="0.80" font-family="monospace" font-style="normal" font-weight="400">
game_id</text>
<text x="55.595" y="25.450"  fill="#000000" text-anchor="start" font-size="0.80" font-family="monospace" font-style="normal" font-weight="400">
int</text>
<rect x="6.250" y="24.950" width="13.235" height="0.900" fill="#FFFFFF" stroke="none" stroke-width="0"/>
<rect x="6.250" y="24.950" width="13.235" height="0.900" fill="none" stroke="#000000" stroke-width="0.100" />
<text x="12.867" y="25.650"  fill="#000000" text-anchor="middle" font-size="0.70" font-family="sans" font-style="normal" font-weight="700">
events</text>
<rect x="6.250" y="25.850" width="13.235" height="2.600" fill="#FFFFFF" stroke="none" stroke-width="0"/>
<rect x="6.250" y="25.850" width="13.235" height="2.600" fill="none" stroke="#000000" stroke-width="0.100" />
<polygon fill="#000000" stroke="none" stroke-width="0.010" points="6.400,26.350 6.500,26.500 6.600,26.350 6.500,26.200 "/>
<text x="6.700" y="26.650"  fill="#000000" text-anchor="start" font-size="0.80" font-family="monospace" font-style="normal" font-weight="400">
id</text>
<text x="14.515" y="26.650"  fill="#000000" text-anchor="start" font-size="0.80" font-family="monospace" font-style="normal" font-weight="400">
int(counter)</text>
<line x1="6.700" y1="26.730" x2="19.135" y2="26.730" stroke="#000000" stroke-width="0.050" />
<ellipse cx="6.500" cy="27.150" rx="0.100" ry="0.100" fill="none" stroke="#000000"  stroke-width="0.010" /><text x="6.700" y="27.450"  fill="#000000" text-anchor="start" font-size="0.80" font-family="monospace" font-style="normal" font-weight="400">
type_id</text>
<text x="14.515" y="27.450"  fill="#000000" text-anchor="start" font-size="0.80" font-family="monospace" font-style="normal" font-weight="400">
int</text>
<ellipse cx="6.500" cy="27.950" rx="0.100" ry="0.100" fill="none" stroke="#000000"  stroke-width="0.010" /><text x="6.700" y="28.250"  fill="#000000" text-anchor="start" font-size="0.80" font-family="monospace" font-style="normal" font-weight="400">
game_person_link_id</text>
<text x="14.515" y="28.250"  fill="#000000" text-anchor="start" font-size="0.80" font-family="monospace" font-style="normal" font-weight="400">
int</text>
<polyline fill="none" stroke="#000000" stroke-width="0.100"  points="32.920,1.500 35.210,1.500 35.210,6.250 37.013,6.250 "/>
<polygon fill="#000000" stroke="none" stroke-width="0.100" points="37.388,6.250 36.888,6.500 37.013,6.250 36.888,6.000 "/>
<polygon fill="none" stroke="#000000" stroke-width="0.100"  points="37.388,6.250 36.888,6.500 37.013,6.250 36.888,6.000 "/>
<text x="33.120" y="1.300"  fill="#000000" text-anchor="start" font-size="0.60" font-family="monospace" font-style="normal" font-weight="400">
1</text>
<text x="37.300" y="6.050"  fill="#000000" text-anchor="end" font-size="0.60" font-family="monospace" font-style="normal" font-weight="400">
n</text>
<polyline fill="none" stroke="#000000" stroke-width="0.100"  points="46.500,7.850 47.950,7.850 47.950,5.050 48.913,5.050 "/>
<polygon fill="#000000" stroke="none" stroke-width="0.100" points="49.288,5.050 48.788,5.300 48.913,5.050 48.788,4.800 "/>
<polygon fill="none" stroke="#000000" stroke-width="0.100"  points="49.288,5.050 48.788,5.300 48.913,5.050 48.788,4.800 "/>
<text x="46.700" y="7.650"  fill="#000000" text-anchor="start" font-size="0.60" font-family="monospace" font-style="normal" font-weight="400">
1</text>
<text x="49.200" y="4.850"  fill="#000000" text-anchor="end" font-size="0.60" font-family="monospace" font-style="normal" font-weight="400">
n</text>
<polyline fill="none" stroke="#000000" stroke-width="0.100"  points="44.085,26.200 46.530,26.200 46.530,32.350 46.017,32.350 "/>
<polygon fill="#000000" stroke="none" stroke-width="0.100" points="45.642,32.350 46.142,32.100 46.017,32.350 46.142,32.600 "/>
<polygon fill="none" stroke="#000000" stroke-width="0.100"  points="45.642,32.350 46.142,32.100 46.017,32.350 46.142,32.600 "/>
<text x="44.285" y="26.000"  fill="#000000" text-anchor="start" font-size="0.60" font-family="monospace" font-style="normal" font-weight="400">
1</text>
<text x="45.730" y="32.150"  fill="#000000" text-anchor="start" font-size="0.60" font-family="monospace" font-style="normal" font-weight="400">
n</text>
<polyline fill="none" stroke="#000000" stroke-width="0.100"  points="51.950,23.550 48.017,23.550 48.017,22.200 44.572,22.200 "/>
<polygon fill="#000000" stroke="none" stroke-width="0.100" points="44.197,22.200 44.697,21.950 44.572,22.200 44.697,22.450 "/>
<polygon fill="none" stroke="#000000" stroke-width="0.100"  points="44.197,22.200 44.697,21.950 44.572,22.200 44.697,22.450 "/>
<text x="51.750" y="23.350"  fill="#000000" text-anchor="end" font-size="0.60" font-family="monospace" font-style="normal" font-weight="400">
1</text>
<text x="44.285" y="22.000"  fill="#000000" text-anchor="start" font-size="0.60" font-family="monospace" font-style="normal" font-weight="400">
n</text>
<polyline fill="none" stroke="#000000" stroke-width="0.100"  points="19.485,27.950 20.543,27.950 20.543,19.600 21.113,19.600 "/>
<polygon fill="#000000" stroke="none" stroke-width="0.100" points="21.488,19.600 20.988,19.850 21.113,19.600 20.988,19.350 "/>
<polygon fill="none" stroke="#000000" stroke-width="0.100"  points="21.488,19.600 20.988,19.850 21.113,19.600 20.988,19.350 "/>
<text x="19.685" y="27.750"  fill="#000000" text-anchor="start" font-size="0.60" font-family="monospace" font-style="normal" font-weight="400">
1</text>
<text x="21.400" y="19.400"  fill="#000000" text-anchor="end" font-size="0.60" font-family="monospace" font-style="normal" font-weight="400">
n</text>
<rect x="21.600" y="18.200" width="9.385" height="0.900" fill="#FFFFFF" stroke="none" stroke-width="0"/>
<rect x="21.600" y="18.200" width="9.385" height="0.900" fill="none" stroke="#000000" stroke-width="0.100" />
<text x="26.293" y="18.900"  fill="#000000" text-anchor="middle" font-size="0.70" font-family="sans" font-style="normal" font-weight="700">
game_person_link</text>
<rect x="21.600" y="19.100" width="9.385" height="2.600" fill="#FFFFFF" stroke="none" stroke-width="0"/>
<rect x="21.600" y="19.100" width="9.385" height="2.600" fill="none" stroke="#000000" stroke-width="0.100" />
<polygon fill="#000000" stroke="none" stroke-width="0.010" points="21.750,19.600 21.850,19.750 21.950,19.600 21.850,19.450 "/>
<text x="22.050" y="19.900"  fill="#000000" text-anchor="start" font-size="0.80" font-family="monospace" font-style="normal" font-weight="400">
id</text>
<text x="26.015" y="19.900"  fill="#000000" text-anchor="start" font-size="0.80" font-family="monospace" font-style="normal" font-weight="400">
int(counter)</text>
<line x1="22.050" y1="19.980" x2="30.635" y2="19.980" stroke="#000000" stroke-width="0.050" />
<ellipse cx="21.850" cy="20.400" rx="0.100" ry="0.100" fill="none" stroke="#000000"  stroke-width="0.010" /><text x="22.050" y="20.700"  fill="#000000" text-anchor="start" font-size="0.80" font-family="monospace" font-style="normal" font-weight="400">
person_id</text>
<text x="26.015" y="20.700"  fill="#000000" text-anchor="start" font-size="0.80" font-family="monospace" font-style="normal" font-weight="400">
int</text>
<ellipse cx="21.850" cy="21.200" rx="0.100" ry="0.100" fill="none" stroke="#000000"  stroke-width="0.010" /><text x="22.050" y="21.500"  fill="#000000" text-anchor="start" font-size="0.80" font-family="monospace" font-style="normal" font-weight="400">
game_id</text>
<text x="26.015" y="21.500"  fill="#000000" text-anchor="start" font-size="0.80" font-family="monospace" font-style="normal" font-weight="400">
int</text>
<polyline fill="none" stroke="#000000" stroke-width="0.100"  points="30.985,21.200 32.843,21.200 32.843,22.200 34.213,22.200 "/>
<polygon fill="#000000" stroke="none" stroke-width="0.100" points="34.588,22.200 34.088,22.450 34.213,22.200 34.088,21.950 "/>
<polygon fill="none" stroke="#000000" stroke-width="0.100"  points="34.588,22.200 34.088,22.450 34.213,22.200 34.088,21.950 "/>
<text x="31.185" y="21.000"  fill="#000000" text-anchor="start" font-size="0.60" font-family="monospace" font-style="normal" font-weight="400">
1</text>
<text x="34.500" y="22.000"  fill="#000000" text-anchor="end" font-size="0.60" font-family="monospace" font-style="normal" font-weight="400">
n</text>
<polyline fill="none" stroke="#000000" stroke-width="0.100"  points="30.985,20.400 31.985,20.400 31.985,10.950 22.150,10.950 22.150,1.500 22.663,1.500 "/>
<polygon fill="#000000" stroke="none" stroke-width="0.100" points="23.038,1.500 22.538,1.750 22.663,1.500 22.538,1.250 "/>
<polygon fill="none" stroke="#000000" stroke-width="0.100"  points="23.038,1.500 22.538,1.750 22.663,1.500 22.538,1.250 "/>
<text x="31.185" y="20.200"  fill="#000000" text-anchor="start" font-size="0.60" font-family="monospace" font-style="normal" font-weight="400">
1</text>
<text x="22.950" y="1.300"  fill="#000000" text-anchor="end" font-size="0.60" font-family="monospace" font-style="normal" font-weight="400">
n</text>
<rect x="58.050" y="7.250" width="7.845" height="0.900" fill="#FFFFFF" stroke="none" stroke-width="0"/>
<rect x="58.050" y="7.250" width="7.845" height="0.900" fill="none" stroke="#000000" stroke-width="0.100" />
<text x="61.972" y="7.950"  fill="#000000" text-anchor="middle" font-size="0.70" font-family="sans" font-style="normal" font-weight="700">
team</text>
<rect x="58.050" y="8.150" width="7.845" height="2.600" fill="#FFFFFF" stroke="none" stroke-width="0"/>
<rect x="58.050" y="8.150" width="7.845" height="2.600" fill="none" stroke="#000000" stroke-width="0.100" />
<polygon fill="#000000" stroke="none" stroke-width="0.010" points="58.200,8.650 58.300,8.800 58.400,8.650 58.300,8.500 "/>
<text x="58.500" y="8.950"  fill="#000000" text-anchor="start" font-size="0.80" font-family="monospace" font-style="normal" font-weight="400">
id</text>
<text x="61.310" y="8.950"  fill="#000000" text-anchor="start" font-size="0.80" font-family="monospace" font-style="normal" font-weight="400">
int(counter</text>
<line x1="58.500" y1="9.030" x2="65.545" y2="9.030" stroke="#000000" stroke-width="0.050" />
<ellipse cx="58.300" cy="9.450" rx="0.100" ry="0.100" fill="none" stroke="#000000"  stroke-width="0.010" /><text x="58.500" y="9.750"  fill="#000000" text-anchor="start" font-size="0.80" font-family="monospace" font-style="normal" font-weight="400">
name</text>
<text x="61.310" y="9.750"  fill="#000000" text-anchor="start" font-size="0.80" font-family="monospace" font-style="normal" font-weight="400">
varchar(40)</text>
<ellipse cx="58.300" cy="10.250" rx="0.100" ry="0.100" fill="none" stroke="#000000"  stroke-width="0.010" /><text x="58.500" y="10.550"  fill="#000000" text-anchor="start" font-size="0.80" font-family="monospace" font-style="normal" font-weight="400">
org_id</text>
<text x="61.310" y="10.550"  fill="#000000" text-anchor="start" font-size="0.80" font-family="monospace" font-style="normal" font-weight="400">
int</text>
<polyline fill="none" stroke="#000000" stroke-width="0.100"  points="46.500,8.650 46.500,8.650 57.563,8.650 "/>
<polygon fill="#000000" stroke="none" stroke-width="0.100" points="57.938,8.650 57.438,8.900 57.563,8.650 57.438,8.400 "/>
<polygon fill="none" stroke="#000000" stroke-width="0.100"  points="57.938,8.650 57.438,8.900 57.563,8.650 57.438,8.400 "/>
<text x="46.700" y="8.450"  fill="#000000" text-anchor="start" font-size="0.60" font-family="monospace" font-style="normal" font-weight="400">
1</text>
<text x="57.850" y="8.450"  fill="#000000" text-anchor="end" font-size="0.60" font-family="monospace" font-style="normal" font-weight="400">
n</text>
<rect x="74.750" y="8.850" width="7.460" height="0.900" fill="#FFFFFF" stroke="none" stroke-width="0"/>
<rect x="74.750" y="8.850" width="7.460" height="0.900" fill="none" stroke="#000000" stroke-width="0.100" />
<text x="78.480" y="9.550"  fill="#000000" text-anchor="middle" font-size="0.70" font-family="sans" font-style="normal" font-weight="700">
org</text>
<rect x="74.750" y="9.750" width="7.460" height="1.800" fill="#FFFFFF" stroke="none" stroke-width="0"/>
<rect x="74.750" y="9.750" width="7.460" height="1.800" fill="none" stroke="#000000" stroke-width="0.100" />
<polygon fill="#000000" stroke="none" stroke-width="0.010" points="74.900,10.250 75.000,10.400 75.100,10.250 75.000,10.100 "/>
<text x="75.200" y="10.550"  fill="#000000" text-anchor="start" font-size="0.80" font-family="monospace" font-style="normal" font-weight="400">
id</text>
<text x="77.240" y="10.550"  fill="#000000" text-anchor="start" font-size="0.80" font-family="monospace" font-style="normal" font-weight="400">
int(counter)</text>
<line x1="75.200" y1="10.630" x2="81.860" y2="10.630" stroke="#000000" stroke-width="0.050" />
<ellipse cx="75.000" cy="11.050" rx="0.100" ry="0.100" fill="none" stroke="#000000"  stroke-width="0.010" /><text x="75.200" y="11.350"  fill="#000000" text-anchor="start" font-size="0.80" font-family="monospace" font-style="normal" font-weight="400">
name</text>
<text x="77.240" y="11.350"  fill="#000000" text-anchor="start" font-size="0.80" font-family="monospace" font-style="normal" font-weight="400">
varchar(40)</text>
<polyline fill="none" stroke="#000000" stroke-width="0.100"  points="74.750,10.250 74.750,10.250 66.382,10.250 "/>
<polygon fill="#000000" stroke="none" stroke-width="0.100" points="66.007,10.250 66.507,10.000 66.382,10.250 66.507,10.500 "/>
<polygon fill="none" stroke="#000000" stroke-width="0.100"  points="66.007,10.250 66.507,10.000 66.382,10.250 66.507,10.500 "/>
<text x="74.950" y="10.850"  fill="#000000" text-anchor="start" font-size="0.60" font-family="monospace" font-style="normal" font-weight="400">
1</text>
<text x="66.095" y="10.050"  fill="#000000" text-anchor="start" font-size="0.60" font-family="monospace" font-style="normal" font-weight="400">
n</text>
<rect x="50.400" y="18.200" width="13.235" height="0.900" fill="#FFFFFF" stroke="none" stroke-width="0"/>
<rect x="50.400" y="18.200" width="13.235" height="0.900" fill="none" stroke="#000000" stroke-width="0.100" />
<text x="57.017" y="18.900"  fill="#000000" text-anchor="middle" font-size="0.70" font-family="sans" font-style="normal" font-weight="700">
goals</text>
<rect x="50.400" y="19.100" width="13.235" height="2.600" fill="#FFFFFF" stroke="none" stroke-width="0"/>
<rect x="50.400" y="19.100" width="13.235" height="2.600" fill="none" stroke="#000000" stroke-width="0.100" />
<polygon fill="#000000" stroke="none" stroke-width="0.010" points="50.550,19.600 50.650,19.750 50.750,19.600 50.650,19.450 "/>
<text x="50.850" y="19.900"  fill="#000000" text-anchor="start" font-size="0.80" font-family="monospace" font-style="normal" font-weight="400">
id</text>
<text x="58.665" y="19.900"  fill="#000000" text-anchor="start" font-size="0.80" font-family="monospace" font-style="normal" font-weight="400">
int(counter)</text>
<line x1="50.850" y1="19.980" x2="63.285" y2="19.980" stroke="#000000" stroke-width="0.050" />
<ellipse cx="50.650" cy="20.400" rx="0.100" ry="0.100" fill="none" stroke="#000000"  stroke-width="0.010" /><text x="50.850" y="20.700"  fill="#000000" text-anchor="start" font-size="0.80" font-family="monospace" font-style="normal" font-weight="400">
game_person_link_id</text>
<ellipse cx="50.650" cy="21.200" rx="0.100" ry="0.100" fill="none" stroke="#000000"  stroke-width="0.010" /><text x="50.850" y="21.500"  fill="#000000" text-anchor="start" font-size="0.80" font-family="monospace" font-style="normal" font-weight="400">
type</text>
<text x="58.665" y="21.500"  fill="#000000" text-anchor="start" font-size="0.80" font-family="monospace" font-style="normal" font-weight="400">
int</text>
<polyline fill="none" stroke="#000000" stroke-width="0.100"  points="50.400,19.600 50.400,19.600 31.472,19.600 "/>
<polygon fill="#000000" stroke="none" stroke-width="0.100" points="31.097,19.600 31.597,19.350 31.472,19.600 31.597,19.850 "/>
<polygon fill="none" stroke="#000000" stroke-width="0.100"  points="31.097,19.600 31.597,19.350 31.472,19.600 31.597,19.850 "/>
<text x="50.200" y="19.400"  fill="#000000" text-anchor="end" font-size="0.60" font-family="monospace" font-style="normal" font-weight="400">
1</text>
<text x="31.185" y="19.400"  fill="#000000" text-anchor="start" font-size="0.60" font-family="monospace" font-style="normal" font-weight="400">
n</text>
<rect x="6.200" y="30.000" width="7.460" height="0.900" fill="#FFFFFF" stroke="none" stroke-width="0"/>
<rect x="6.200" y="30.000" width="7.460" height="0.900" fill="none" stroke="#000000" stroke-width="0.100" />
<text x="9.930" y="30.700"  fill="#000000" text-anchor="middle" font-size="0.70" font-family="sans" font-style="normal" font-weight="700">
event_types</text>
<rect x="6.200" y="30.900" width="7.460" height="1.800" fill="#FFFFFF" stroke="none" stroke-width="0"/>
<rect x="6.200" y="30.900" width="7.460" height="1.800" fill="none" stroke="#000000" stroke-width="0.100" />
<polygon fill="#000000" stroke="none" stroke-width="0.010" points="6.350,31.400 6.450,31.550 6.550,31.400 6.450,31.250 "/>
<text x="6.650" y="31.700"  fill="#000000" text-anchor="start" font-size="0.80" font-family="monospace" font-style="normal" font-weight="400">
id</text>
<text x="8.690" y="31.700"  fill="#000000" text-anchor="start" font-size="0.80" font-family="monospace" font-style="normal" font-weight="400">
int(counter)</text>
<line x1="6.650" y1="31.780" x2="13.310" y2="31.780" stroke="#000000" stroke-width="0.050" />
<ellipse cx="6.450" cy="32.200" rx="0.100" ry="0.100" fill="none" stroke="#000000"  stroke-width="0.010" /><text x="6.650" y="32.500"  fill="#000000" text-anchor="start" font-size="0.80" font-family="monospace" font-style="normal" font-weight="400">
name</text>
<text x="8.690" y="32.500"  fill="#000000" text-anchor="start" font-size="0.80" font-family="monospace" font-style="normal" font-weight="400">
varchar(20)</text>
<polyline fill="none" stroke="#000000" stroke-width="0.100"  points="6.250,27.150 5.200,27.150 5.200,31.400 5.713,31.400 "/>
<polygon fill="#000000" stroke="none" stroke-width="0.100" points="6.088,31.400 5.588,31.650 5.713,31.400 5.588,31.150 "/>
<polygon fill="none" stroke="#000000" stroke-width="0.100"  points="6.088,31.400 5.588,31.650 5.713,31.400 5.588,31.150 "/>
<text x="6.050" y="26.950"  fill="#000000" text-anchor="end" font-size="0.60" font-family="monospace" font-style="normal" font-weight="400">
1</text>
<text x="6.000" y="31.200"  fill="#000000" text-anchor="end" font-size="0.60" font-family="monospace" font-style="normal" font-weight="400">
n</text>
<rect x="52.500" y="26.150" width="7.460" height="0.900" fill="#FFFFFF" stroke="none" stroke-width="0"/>
<rect x="52.500" y="26.150" width="7.460" height="0.900" fill="none" stroke="#000000" stroke-width="0.100" />
<text x="56.230" y="26.850"  fill="#000000" text-anchor="middle" font-size="0.70" font-family="sans" font-style="normal" font-weight="700">
game_status</text>
<rect x="52.500" y="27.050" width="7.460" height="1.800" fill="#FFFFFF" stroke="none" stroke-width="0"/>
<rect x="52.500" y="27.050" width="7.460" height="1.800" fill="none" stroke="#000000" stroke-width="0.100" />
<polygon fill="#000000" stroke="none" stroke-width="0.010" points="52.650,27.550 52.750,27.700 52.850,27.550 52.750,27.400 "/>
<text x="52.950" y="27.850"  fill="#000000" text-anchor="start" font-size="0.80" font-family="monospace" font-style="normal" font-weight="400">
id</text>
<text x="54.990" y="27.850"  fill="#000000" text-anchor="start" font-size="0.80" font-family="monospace" font-style="normal" font-weight="400">
int(counter)</text>
<line x1="52.950" y1="27.930" x2="59.610" y2="27.930" stroke="#000000" stroke-width="0.050" />
<ellipse cx="52.750" cy="28.350" rx="0.100" ry="0.100" fill="none" stroke="#000000"  stroke-width="0.010" /><text x="52.950" y="28.650"  fill="#000000" text-anchor="start" font-size="0.80" font-family="monospace" font-style="normal" font-weight="400">
name</text>
<text x="54.990" y="28.650"  fill="#000000" text-anchor="start" font-size="0.80" font-family="monospace" font-style="normal" font-weight="400">
varchar(30)</text>
<polyline fill="none" stroke="#000000" stroke-width="0.100"  points="52.500,27.550 48.293,27.550 48.293,25.400 44.572,25.400 "/>
<polygon fill="#000000" stroke="none" stroke-width="0.100" points="44.197,25.400 44.697,25.150 44.572,25.400 44.697,25.650 "/>
<polygon fill="none" stroke="#000000" stroke-width="0.100"  points="44.197,25.400 44.697,25.150 44.572,25.400 44.697,25.650 "/>
<text x="52.300" y="27.350"  fill="#000000" text-anchor="end" font-size="0.60" font-family="monospace" font-style="normal" font-weight="400">
1</text>
<text x="44.285" y="25.200"  fill="#000000" text-anchor="start" font-size="0.60" font-family="monospace" font-style="normal" font-weight="400">
n</text>
<rect x="36.200" y="13.600" width="9.770" height="0.900" fill="#FFFFFF" stroke="none" stroke-width="0"/>
<rect x="36.200" y="13.600" width="9.770" height="0.900" fill="none" stroke="#000000" stroke-width="0.100" />
<text x="41.085" y="14.300"  fill="#000000" text-anchor="middle" font-size="0.70" font-family="sans" font-style="normal" font-weight="700">
season</text>
<rect x="36.200" y="14.500" width="9.770" height="3.400" fill="#FFFFFF" stroke="none" stroke-width="0"/>
<rect x="36.200" y="14.500" width="9.770" height="3.400" fill="none" stroke="#000000" stroke-width="0.100" />
<polygon fill="#000000" stroke="none" stroke-width="0.010" points="36.350,15.000 36.450,15.150 36.550,15.000 36.450,14.850 "/>
<text x="36.650" y="15.300"  fill="#000000" text-anchor="start" font-size="0.80" font-family="monospace" font-style="normal" font-weight="400">
id</text>
<text x="41.000" y="15.300"  fill="#000000" text-anchor="start" font-size="0.80" font-family="monospace" font-style="normal" font-weight="400">
int(counter)</text>
<line x1="36.650" y1="15.380" x2="45.620" y2="15.380" stroke="#000000" stroke-width="0.050" />
<ellipse cx="36.450" cy="15.800" rx="0.100" ry="0.100" fill="none" stroke="#000000"  stroke-width="0.010" /><text x="36.650" y="16.100"  fill="#000000" text-anchor="start" font-size="0.80" font-family="monospace" font-style="normal" font-weight="400">
name</text>
<text x="41.000" y="16.100"  fill="#000000" text-anchor="start" font-size="0.80" font-family="monospace" font-style="normal" font-weight="400">
varchar(30)</text>
<ellipse cx="36.450" cy="16.600" rx="0.100" ry="0.100" fill="none" stroke="#000000"  stroke-width="0.010" /><text x="36.650" y="16.900"  fill="#000000" text-anchor="start" font-size="0.80" font-family="monospace" font-style="normal" font-weight="400">
start_date</text>
<text x="41.000" y="16.900"  fill="#000000" text-anchor="start" font-size="0.80" font-family="monospace" font-style="normal" font-weight="400">
timestamp</text>
<ellipse cx="36.450" cy="17.400" rx="0.100" ry="0.100" fill="none" stroke="#000000"  stroke-width="0.010" /><text x="36.650" y="17.700"  fill="#000000" text-anchor="start" font-size="0.80" font-family="monospace" font-style="normal" font-weight="400">
end_date</text>
<text x="41.000" y="17.700"  fill="#000000" text-anchor="start" font-size="0.80" font-family="monospace" font-style="normal" font-weight="400">
timestamp</text>
<rect x="49.800" y="12.650" width="9.385" height="0.900" fill="#FFFFFF" stroke="none" stroke-width="0"/>
<rect x="49.800" y="12.650" width="9.385" height="0.900" fill="none" stroke="#000000" stroke-width="0.100" />
<text x="54.492" y="13.350"  fill="#000000" text-anchor="middle" font-size="0.70" font-family="sans" font-style="normal" font-weight="700">
team_season_link</text>
<rect x="49.800" y="13.550" width="9.385" height="2.600" fill="#FFFFFF" stroke="none" stroke-width="0"/>
<rect x="49.800" y="13.550" width="9.385" height="2.600" fill="none" stroke="#000000" stroke-width="0.100" />
<polygon fill="#000000" stroke="none" stroke-width="0.010" points="49.950,14.050 50.050,14.200 50.150,14.050 50.050,13.900 "/>
<text x="50.250" y="14.350"  fill="#000000" text-anchor="start" font-size="0.80" font-family="monospace" font-style="normal" font-weight="400">
id</text>
<text x="54.215" y="14.350"  fill="#000000" text-anchor="start" font-size="0.80" font-family="monospace" font-style="normal" font-weight="400">
int(counter)</text>
<line x1="50.250" y1="14.430" x2="58.835" y2="14.430" stroke="#000000" stroke-width="0.050" />
<ellipse cx="50.050" cy="14.850" rx="0.100" ry="0.100" fill="none" stroke="#000000"  stroke-width="0.010" /><text x="50.250" y="15.150"  fill="#000000" text-anchor="start" font-size="0.80" font-family="monospace" font-style="normal" font-weight="400">
season_id</text>
<text x="54.215" y="15.150"  fill="#000000" text-anchor="start" font-size="0.80" font-family="monospace" font-style="normal" font-weight="400">
int</text>
<ellipse cx="50.050" cy="15.650" rx="0.100" ry="0.100" fill="none" stroke="#000000"  stroke-width="0.010" /><text x="50.250" y="15.950"  fill="#000000" text-anchor="start" font-size="0.80" font-family="monospace" font-style="normal" font-weight="400">
team_id</text>
<text x="54.215" y="15.950"  fill="#000000" text-anchor="start" font-size="0.80" font-family="monospace" font-style="normal" font-weight="400">
int</text>
<polyline fill="none" stroke="#000000" stroke-width="0.100"  points="65.895,8.650 68.200,8.650 68.200,15.650 59.672,15.650 "/>
<polygon fill="#000000" stroke="none" stroke-width="0.100" points="59.297,15.650 59.797,15.400 59.672,15.650 59.797,15.900 "/>
<polygon fill="none" stroke="#000000" stroke-width="0.100"  points="59.297,15.650 59.797,15.400 59.672,15.650 59.797,15.900 "/>
<text x="66.095" y="8.450"  fill="#000000" text-anchor="start" font-size="0.60" font-family="monospace" font-style="normal" font-weight="400">
1</text>
<text x="59.385" y="15.450"  fill="#000000" text-anchor="start" font-size="0.60" font-family="monospace" font-style="normal" font-weight="400">
n</text>
<polyline fill="none" stroke="#000000" stroke-width="0.100"  points="49.950,15.000 49.950,15.000 46.457,15.000 "/>
<polygon fill="#000000" stroke="none" stroke-width="0.100" points="46.082,15.000 46.582,14.750 46.457,15.000 46.582,15.250 "/>
<polygon fill="none" stroke="#000000" stroke-width="0.100"  points="46.082,15.000 46.582,14.750 46.457,15.000 46.582,15.250 "/>
<text x="49.750" y="14.800"  fill="#000000" text-anchor="end" font-size="0.60" font-family="monospace" font-style="normal" font-weight="400">
1</text>
<text x="46.170" y="14.800"  fill="#000000" text-anchor="start" font-size="0.60" font-family="monospace" font-style="normal" font-weight="400">
n</text>
<polyline fill="none" stroke="#000000" stroke-width="0.100"  points="45.530,35.550 83.850,35.550 83.850,10.250 82.697,10.250 "/>
<polygon fill="#000000" stroke="none" stroke-width="0.100" points="82.322,10.250 82.822,10.000 82.697,10.250 82.822,10.500 "/>
<polygon fill="none" stroke="#000000" stroke-width="0.100"  points="82.322,10.250 82.822,10.000 82.697,10.250 82.822,10.500 "/>
<text x="45.730" y="35.350"  fill="#000000" text-anchor="start" font-size="0.60" font-family="monospace" font-style="normal" font-weight="400">
1</text>
<text x="82.410" y="10.050"  fill="#000000" text-anchor="start" font-size="0.60" font-family="monospace" font-style="normal" font-weight="400">
n</text>
<polyline fill="none" stroke="#000000" stroke-width="0.100"  points="34.700,27.000 33.700,27.000 33.700,15.000 35.713,15.000 "/>
<polygon fill="#000000" stroke="none" stroke-width="0.100" points="36.088,15.000 35.588,15.250 35.713,15.000 35.588,14.750 "/>
<polygon fill="none" stroke="#000000" stroke-width="0.100"  points="36.088,15.000 35.588,15.250 35.713,15.000 35.588,14.750 "/>
<text x="34.500" y="26.800"  fill="#000000" text-anchor="end" font-size="0.60" font-family="monospace" font-style="normal" font-weight="400">
1</text>
<text x="36.000" y="14.800"  fill="#000000" text-anchor="end" font-size="0.60" font-family="monospace" font-style="normal" font-weight="400">
n</text>
</svg>